<?xml version="1.0" standalone="no"?>
<!DOCTYPE svg PUBLIC "-//W3C//DTD SVG 20010904//EN"
 "http://www.w3.org/TR/2001/REC-SVG-20010904/DTD/svg10.dtd">
<svg version="1.0" xmlns="http://www.w3.org/2000/svg"
 width="260.000000pt" height="260.000000pt" viewBox="0 0 260.000000 260.000000"
 preserveAspectRatio="xMidYMid meet">
<metadata>
Created by potrace 1.11, written by Peter Selinger 2001-2013
</metadata>
<g transform="translate(0.000000,260.000000) scale(0.100000,-0.100000)"
fill="#000000" stroke="none">
<path d="M1169 2586 c-2 -2 -24 -7 -49 -10 -197 -27 -389 -102 -557 -218 -77
-53 -240 -207 -278 -262 -11 -16 -26 -35 -32 -42 -7 -7 -13 -17 -13 -22 0 -6
-4 -12 -8 -14 -22 -9 -120 -204 -155 -308 -47 -141 -61 -234 -61 -400 0 -155
3 -192 29 -307 26 -112 114 -332 137 -341 4 -2 8 -8 8 -13 0 -12 73 -120 109
-163 204 -240 469 -398 761 -453 100 -19 142 -22 270 -18 80 2 159 6 175 10
154 32 250 63 353 112 61 29 154 83 162 93 3 4 12 11 21 16 52 29 243 208 274
256 6 8 29 43 53 77 53 75 123 215 151 300 51 156 68 256 68 414 2 350 -128
666 -372 912 -109 109 -294 242 -339 243 -5 0 -12 4 -15 9 -15 21 -171 76
-296 104 -81 19 -383 38 -396 25z"/>
</g>
</svg>
